# xmcd
#
# Track frame offsets:
#	150
#	19308
#	43100
#	58842
#	84015
#	99159
#	107040
#	119460
#	149414
#	178750
#
# Disc length: 2631 seconds
# Revision: 0
# Processed by: cddbd v1.5.2PL0 Copyright (c) Steve Scherf et al.
# Submitted via: dBpowerAMP V12.0
#
DISCID=830a450a
DTITLE=Hale Dwoskin - Absolute Freedom CD 03 - Opening to Love
DYEAR=2005
DGENRE=Speech
TTITLE0=Introduction
TTITLE1=Welcoming What Is - Love
TTITLE2=Resisting and Accepting Hate and Love
TTITLE3=Hate and Love for Yourself and Others
TTITLE4=Hate and Love for Your Body - Take a Break
TTITLE5=Welcome Back
TTITLE6=Hate and Love for Your Mind and Soul
TTITLE7=Hate and Love for a Person - for Beingness - Opening to Love
TTITLE8=Loving Freedom - Life - What You Are Perceiving - God
TTITLE9=Being Loving - Being Love - Surrendering to Love
EXTD=
EXTT0=
EXTT1=
EXTT2=
EXTT3=
EXTT4=
EXTT5=
EXTT6=
EXTT7=
EXTT8=
EXTT9=
PLAYORDER=
